# xmcd
#
# Track frame offsets:
#	150
#	15510
#	33694
#	45530
#	58701
#	77870
#	96364
#	111828
#	123209
#	141906
#	151058
#
# Disc length: 2189 seconds
#
# Revision: 1
# Processed by: cddbd v1.5.2PL0 Copyright (c) Steve Scherf et al.
# Submitted via: audiograbber 1.83.01
#
DISCID=8b088b0b
DTITLE=Jon Dee Graham - Garage Sale
DYEAR=2012
DGENRE=Alternative
TTITLE0=Unafraid
TTITLE1=Yes Yes
TTITLE2=The Orphan's Song
TTITLE3=O Dearest One
TTITLE4=Bobby Dunbar
TTITLE5=Just Like That
TTITLE6=Codeine/Codine
TTITLE7=#19
TTITLE8=Collapse
TTITLE9=Where Were Yr Friends?
TTITLE10=Radio Uxtmal (Venceremos)
EXTD=
EXTT0=
EXTT1=
EXTT2=
EXTT3=
EXTT4=
EXTT5=
EXTT6=
EXTT7=
EXTT8=
EXTT9=
EXTT10=
PLAYORDER=
